<?xml version="1.0" encoding="UTF-8" standalone="no"?>
<!-- Created with Inkscape (http://www.inkscape.org/) -->

<svg
   xmlns:dc="http://purl.org/dc/elements/1.1/"
   xmlns:cc="http://creativecommons.org/ns#"
   xmlns:rdf="http://www.w3.org/1999/02/22-rdf-syntax-ns#"
   xmlns:svg="http://www.w3.org/2000/svg"
   xmlns="http://www.w3.org/2000/svg"
   xmlns:sodipodi="http://sodipodi.sourceforge.net/DTD/sodipodi-0.dtd"
   xmlns:inkscape="http://www.inkscape.org/namespaces/inkscape"
   id="svg3330"
   version="1.1"
   inkscape:version="0.48.2 r9819"
   width="800.78998"
   height="250.71001"
   xml:space="preserve"
   sodipodi:docname="flapjack-sticker.svg"><metadata
     id="metadata3336"><rdf:RDF><cc:Work
         rdf:about=""><dc:format>image/svg+xml</dc:format><dc:type
           rdf:resource="http://purl.org/dc/dcmitype/StillImage" /><dc:title></dc:title></cc:Work></rdf:RDF></metadata><defs
     id="defs3334"><clipPath
       clipPathUnits="userSpaceOnUse"
       id="clipPath3350"><path
         d="m 0,307.485 395.98,0 L 395.98,0 0,0 0,307.485 z"
         id="path3352"
         inkscape:connector-curvature="0" /></clipPath></defs><sodipodi:namedview
     pagecolor="#ffffff"
     bordercolor="#666666"
     borderopacity="1"
     objecttolerance="10"
     gridtolerance="10"
     guidetolerance="10"
     inkscape:pageopacity="0"
     inkscape:pageshadow="2"
     inkscape:window-width="1436"
     inkscape:window-height="856"
     id="namedview3332"
     showgrid="false"
     inkscape:zoom="1.0049646"
     inkscape:cx="359.84003"
     inkscape:cy="212.07515"
     inkscape:window-x="4"
     inkscape:window-y="0"
     inkscape:window-maximized="1"
     inkscape:current-layer="g3338"
     fit-margin-top="0"
     fit-margin-left="0"
     fit-margin-right="0"
     fit-margin-bottom="0"
     showguides="true"
     showborder="true"
     inkscape:snap-global="false"><inkscape:grid
       type="xygrid"
       id="grid3441"
       empspacing="5"
       visible="true"
       enabled="true"
       snapvisiblegridlinesonly="true" /></sodipodi:namedview><g
     id="g3338"
     inkscape:groupmode="layer"
     inkscape:label="flapjack"
     transform="matrix(1.25,0,0,-1.25,-63.685976,340.53298)"><g
       id="g3143"
       transform="translate(791.1632,538.52176)"><path
         id="path3340"
         style="fill:#f9bf30;fill-opacity:1;fill-rule:nonzero;stroke:none"
         d="m 228.619,243.629 -31.651,0 0,31.652 31.651,0 0,-31.652 z"
         inkscape:connector-curvature="0" /><path
         id="path3342"
         style="fill:#f9bf30;fill-opacity:1;fill-rule:nonzero;stroke:none"
         d="m 184.203,256.902 -19.399,0 0,19.4 19.399,0 0,-19.4 z"
         inkscape:connector-curvature="0" /><path
         id="path3344"
         style="fill:#f9bf30;fill-opacity:1;fill-rule:nonzero;stroke:none"
         d="m 203.092,287.024 -14.295,0 0,14.295 14.295,0 0,-14.295 z"
         inkscape:connector-curvature="0" /><g
         transform="translate(285.3716,224.5508)"
         id="g3354"><path
           inkscape:connector-curvature="0"
           id="path3356"
           style="fill:#7f3c05;fill-opacity:1;fill-rule:nonzero;stroke:none"
           d="m 0,0 c 0,-4.418 -3.582,-8 -8,-8 l -158,0 c -4.418,0 -8,3.582 -8,8 0,4.419 3.582,8 8,8 L -8,8 C -3.582,8 0,4.419 0,0" /></g><g
         transform="translate(285.3716,198.5508)"
         id="g3358"><path
           inkscape:connector-curvature="0"
           id="path3360"
           style="fill:#7f3c05;fill-opacity:1;fill-rule:nonzero;stroke:none"
           d="m 0,0 c 0,-4.418 -3.582,-8 -8,-8 l -158,0 c -4.418,0 -8,3.582 -8,8 0,4.419 3.582,8 8,8 L -8,8 C -3.582,8 0,4.419 0,0" /></g><g
         transform="translate(285.3716,171.5508)"
         id="g3362"><path
           inkscape:connector-curvature="0"
           id="path3364"
           style="fill:#7f3c05;fill-opacity:1;fill-rule:nonzero;stroke:none"
           d="m 0,0 c 0,-4.418 -3.582,-8 -8,-8 l -158,0 c -4.418,0 -8,3.582 -8,8 0,4.419 3.582,8 8,8 L -8,8 C -3.582,8 0,4.419 0,0" /></g><g
         transform="translate(285.3716,145.5508)"
         id="g3366"><path
           inkscape:connector-curvature="0"
           id="path3368"
           style="fill:#7f3c05;fill-opacity:1;fill-rule:nonzero;stroke:none"
           d="m 0,0 c 0,-4.418 -3.582,-8 -8,-8 l -158,0 c -4.418,0 -8,3.582 -8,8 0,4.419 3.582,8 8,8 L -8,8 C -3.582,8 0,4.419 0,0" /></g></g><g
       id="g3125"
       transform="matrix(1.0936423,0,0,1.0936423,1098.77,641.08709)"><g
         transform="translate(4.7964,79.2568)"
         id="g3370"><path
           inkscape:connector-curvature="0"
           id="path3372"
           style="fill:#42210b;fill-opacity:1;fill-rule:nonzero;stroke:none"
           d="m 0,0 0,9.736 9.087,1.838 0,4.869 c 0,15.145 7.101,22.716 21.309,22.716 l 32.238,-0.216 0,-61.983 c 0,-3.895 0.358,-6.564 1.081,-8.005 0.72,-1.444 2.017,-2.525 3.893,-3.246 4.328,-1.514 6.744,-2.272 7.248,-2.272 l 0,-9.302 -12.548,0 c -5.193,0 -8.961,1.531 -11.305,4.597 -2.344,3.065 -3.516,8.347 -3.516,15.848 l 0,53.005 -14.17,0.107 c -2.091,0 -3.785,-0.324 -5.084,-0.972 -2.669,-1.228 -4.002,-4.652 -4.002,-10.277 l 0,-4.869 12.981,0 0,-11.574 -13.09,0 0,-45.865 -15.143,0 L 8.979,0 0,0 z" /></g><g
         transform="translate(99.5552,50.1592)"
         id="g3374"><path
           inkscape:connector-curvature="0"
           id="path3376"
           style="fill:#42210b;fill-opacity:1;fill-rule:nonzero;stroke:none"
           d="m 0,0 c 0,-2.164 0.469,-3.589 1.406,-4.273 0.938,-0.687 2.308,-1.028 4.112,-1.028 1.8,0 3.802,0.378 6.003,1.136 2.2,0.757 3.911,1.496 5.139,2.218 l 1.946,1.189 0,10.493 L 4.652,8.653 C 1.551,8.364 0,6.417 0,2.813 L 0,0 z m -13.196,37.86 c 6.561,2.597 15.323,3.895 26.286,3.895 6.634,0 11.737,-1.391 15.306,-4.165 3.57,-2.777 5.355,-7.555 5.355,-14.332 l 0,-40.026 -12.008,0 -3.137,6.275 c -0.288,-0.505 -1.208,-1.281 -2.757,-2.326 -1.552,-1.046 -3.699,-2.074 -6.437,-3.083 -2.742,-1.009 -5.373,-1.514 -7.897,-1.514 -5.337,0 -9.448,1.53 -12.331,4.597 -2.885,3.064 -4.328,6.616 -4.328,10.655 l 0,5.408 c 0,4.615 1.371,8.402 4.111,11.36 2.74,2.956 6.959,4.416 12.656,4.379 5.695,-0.037 9.951,-0.053 12.765,-0.053 2.813,0 4.218,0.035 4.218,0.108 l 0,2.65 0,1.029 c 0,2.883 -0.614,4.775 -1.838,5.679 -1.227,0.9 -3.678,1.351 -7.356,1.351 -3.679,0 -11.215,-0.397 -22.608,-1.189 l 0,9.302 z" /></g><g
         transform="translate(170.8423,44.4248)"
         id="g3378"><path
           inkscape:connector-curvature="0"
           id="path3380"
           style="fill:#42210b;fill-opacity:1;fill-rule:nonzero;stroke:none"
           d="M 0,0 C 1.73,0 3.1,0.396 4.11,1.19 6.345,3.065 7.463,8.438 7.463,17.308 7.463,23.51 6.85,27.855 5.625,30.344 4.398,32.831 2.523,34.075 0,34.075 c -5.338,0 -9.844,-1.154 -13.521,-3.461 l 0,-28.449 C -9.773,0.721 -5.266,0 0,0 m -5.572,45.109 c 3.209,1.297 6.455,1.947 9.736,1.947 3.281,0 6.148,-0.687 8.6,-2.055 2.451,-1.371 4.398,-3.391 5.841,-6.059 2.667,-5.047 4.002,-12.043 4.002,-20.984 0,-11.684 -1.73,-19.761 -5.191,-24.231 -3.029,-3.75 -7.537,-5.625 -13.521,-5.625 -2.596,0 -5.518,0.342 -8.763,1.028 -3.245,0.683 -6.13,1.567 -8.653,2.65 l 0,-32.02 -15.038,0 0,86.646 12.441,0 2.597,-5.732 c 2.09,1.659 4.74,3.138 7.949,4.435" /></g><g
         transform="translate(204.2388,101.7295)"
         id="g3382"><path
           inkscape:connector-curvature="0"
           id="path3384"
           style="fill:#42210b;fill-opacity:1;fill-rule:nonzero;stroke:none"
           d="m 0,0 0,8.472 c 0,1.668 0.77,2.503 2.31,2.503 l 10.108,0 c 0.705,0 1.251,-0.242 1.637,-0.723 0.385,-0.481 0.577,-1.075 0.577,-1.78 l 0,-8.472 c 0,-1.478 -0.739,-2.215 -2.214,-2.215 l -10.108,0 c -0.706,0 -1.268,0.194 -1.685,0.578 C 0.208,-1.251 0,-0.707 0,0" /></g><g
         transform="translate(242.019,50.1592)"
         id="g3386"><path
           inkscape:connector-curvature="0"
           id="path3388"
           style="fill:#42210b;fill-opacity:1;fill-rule:nonzero;stroke:none"
           d="m 0,0 c 0,-2.164 0.468,-3.589 1.406,-4.273 0.937,-0.687 2.307,-1.028 4.111,-1.028 1.802,0 3.802,0.378 6.004,1.136 2.199,0.757 3.911,1.496 5.138,2.218 l 1.946,1.189 0,10.493 L 4.651,8.653 C 1.55,8.364 0,6.417 0,2.813 L 0,0 z m -13.198,37.86 c 6.562,2.597 15.324,3.895 26.287,3.895 6.634,0 11.736,-1.391 15.307,-4.165 3.569,-2.777 5.354,-7.555 5.354,-14.332 l 0,-40.026 -12.007,0 -3.138,6.275 c -0.289,-0.505 -1.209,-1.281 -2.757,-2.326 -1.552,-1.046 -3.697,-2.074 -6.437,-3.083 -2.742,-1.009 -5.373,-1.514 -7.896,-1.514 -5.338,0 -9.45,1.53 -12.332,4.597 -2.885,3.064 -4.328,6.616 -4.328,10.655 l 0,5.408 c 0,4.615 1.37,8.402 4.112,11.36 2.739,2.956 6.958,4.416 12.655,4.379 5.697,-0.037 9.953,-0.053 12.765,-0.053 2.813,0 4.218,0.035 4.218,0.108 l 0,2.65 0,1.029 c 0,2.883 -0.613,4.775 -1.838,5.679 -1.228,0.9 -3.678,1.351 -7.356,1.351 -3.678,0 -11.215,-0.397 -22.609,-1.189 l 0,9.302 z" /></g><g
         transform="translate(283.8823,62.166)"
         id="g3390"><path
           inkscape:connector-curvature="0"
           id="path3392"
           style="fill:#42210b;fill-opacity:1;fill-rule:nonzero;stroke:none"
           d="m 0,0 c 0,5.769 0.449,10.618 1.353,14.549 0.9,3.93 2.234,6.923 4.002,8.978 1.766,2.056 3.732,3.516 5.895,4.382 2.164,0.865 4.722,1.297 7.681,1.297 10.6,0 19.398,-1.118 26.394,-3.352 l 0,-9.412 c -6.852,0.433 -12.315,0.649 -16.388,0.649 -4.076,0 -6.528,-0.072 -7.357,-0.216 -0.83,-0.146 -1.749,-0.506 -2.758,-1.082 -1.01,-0.578 -1.73,-1.479 -2.163,-2.704 -1.012,-2.958 -1.515,-7.158 -1.515,-12.602 0,-5.447 0.342,-9.357 1.028,-11.737 0.684,-2.38 1.694,-3.948 3.029,-4.706 1.334,-0.757 3.444,-1.136 6.327,-1.136 5.842,0 11.719,0.252 17.634,0.758 l 2.92,0.217 0,-9.52 c -3.318,-1.731 -6.563,-2.741 -9.735,-3.029 -4.69,-0.433 -8.763,-0.649 -12.224,-0.649 l -0.649,0 -4.543,0 c -5.699,0 -10.169,1.91 -13.414,5.733 C 1.839,-19.327 0,-11.467 0,0" /></g><g
         transform="translate(338.1841,33.3916)"
         id="g3394"><path
           inkscape:connector-curvature="0"
           id="path3396"
           style="fill:#42210b;fill-opacity:1;fill-rule:nonzero;stroke:none"
           d="m 0,0 0,84.592 15.145,0 0,-46.406 3.136,0 16.226,19.253 19.256,0 L 32.236,32.452 53.763,0 35.697,0 18.281,26.611 l -3.136,0 L 15.145,0 0,0 z" /></g><g
         transform="translate(218.978,37.5244)"
         id="g3398"><path
           inkscape:connector-curvature="0"
           id="path3400"
           style="fill:#42210b;fill-opacity:1;fill-rule:nonzero;stroke:none"
           d="m 0,0 c 0,-19.741 -2.31,-24.677 -16.064,-24.677 -4.517,0 -9.132,0.312 -9.132,0.312 l 0,11.864 c 0,0 4.72,0.109 5.666,0.109 3.046,0 4.935,1.156 4.935,7.246 l 0,58.068 L 0,52.922 0,0 z" /></g></g><g
       transform="matrix(0.98517896,0,0,0.98517896,785.87657,75.613658)"
       id="g3324"><path
         inkscape:connector-curvature="0"
         d="m 228.619,243.629 -31.651,0 0,31.652 31.651,0 0,-31.652 z"
         style="fill:#f9bf30;fill-opacity:1;fill-rule:nonzero;stroke:none"
         id="path3326" /><path
         inkscape:connector-curvature="0"
         d="m 184.203,256.902 -19.399,0 0,19.4 19.399,0 0,-19.4 z"
         style="fill:#f9bf30;fill-opacity:1;fill-rule:nonzero;stroke:none"
         id="path3328" /><path
         inkscape:connector-curvature="0"
         d="m 203.092,287.024 -14.295,0 0,14.295 14.295,0 0,-14.295 z"
         style="fill:#f9bf30;fill-opacity:1;fill-rule:nonzero;stroke:none"
         id="path3330" /><g
         id="g3332"
         transform="translate(285.3716,224.5508)"><path
           d="m 0,0 c 0,-4.418 -3.582,-8 -8,-8 l -158,0 c -4.418,0 -8,3.582 -8,8 0,4.419 3.582,8 8,8 L -8,8 C -3.582,8 0,4.419 0,0"
           style="fill:#7f3c05;fill-opacity:1;fill-rule:nonzero;stroke:none"
           id="path3334"
           inkscape:connector-curvature="0" /></g><g
         id="g3336"
         transform="translate(285.3716,198.5508)"><path
           d="m 0,0 c 0,-4.418 -3.582,-8 -8,-8 l -158,0 c -4.418,0 -8,3.582 -8,8 0,4.419 3.582,8 8,8 L -8,8 C -3.582,8 0,4.419 0,0"
           style="fill:#7f3c05;fill-opacity:1;fill-rule:nonzero;stroke:none"
           id="path3338"
           inkscape:connector-curvature="0" /></g><g
         id="g3340"
         transform="translate(285.3716,171.5508)"><path
           d="m 0,0 c 0,-4.418 -3.582,-8 -8,-8 l -158,0 c -4.418,0 -8,3.582 -8,8 0,4.419 3.582,8 8,8 L -8,8 C -3.582,8 0,4.419 0,0"
           style="fill:#7f3c05;fill-opacity:1;fill-rule:nonzero;stroke:none"
           id="path3343"
           inkscape:connector-curvature="0" /></g><g
         id="g3345"
         transform="translate(285.3716,145.5508)"><path
           d="m 0,0 c 0,-4.418 -3.582,-8 -8,-8 l -158,0 c -4.418,0 -8,3.582 -8,8 0,4.419 3.582,8 8,8 L -8,8 C -3.582,8 0,4.419 0,0"
           style="fill:#7f3c05;fill-opacity:1;fill-rule:nonzero;stroke:none"
           id="path3347"
           inkscape:connector-curvature="0" /></g></g><g
       transform="matrix(1.5689061,0,0,1.5689061,1097.4416,159.63968)"
       id="g3349"><g
         id="g3351"
         transform="translate(4.7964,79.2568)"><path
           d="m 0,0 0,9.736 9.087,1.838 0,4.869 c 0,15.145 7.101,22.716 21.309,22.716 l 32.238,-0.216 0,-61.983 c 0,-3.895 0.358,-6.564 1.081,-8.005 0.72,-1.444 2.017,-2.525 3.893,-3.246 4.328,-1.514 6.744,-2.272 7.248,-2.272 l 0,-9.302 -12.548,0 c -5.193,0 -8.961,1.531 -11.305,4.597 -2.344,3.065 -3.516,8.347 -3.516,15.848 l 0,53.005 -14.17,0.107 c -2.091,0 -3.785,-0.324 -5.084,-0.972 -2.669,-1.228 -4.002,-4.652 -4.002,-10.277 l 0,-4.869 12.981,0 0,-11.574 -13.09,0 0,-45.865 -15.143,0 L 8.979,0 0,0 z"
           style="fill:#42210b;fill-opacity:1;fill-rule:nonzero;stroke:none"
           id="path3353"
           inkscape:connector-curvature="0" /></g><g
         id="g3355"
         transform="translate(99.5552,50.1592)"><path
           d="m 0,0 c 0,-2.164 0.469,-3.589 1.406,-4.273 0.938,-0.687 2.308,-1.028 4.112,-1.028 1.8,0 3.802,0.378 6.003,1.136 2.2,0.757 3.911,1.496 5.139,2.218 l 1.946,1.189 0,10.493 L 4.652,8.653 C 1.551,8.364 0,6.417 0,2.813 L 0,0 z m -13.196,37.86 c 6.561,2.597 15.323,3.895 26.286,3.895 6.634,0 11.737,-1.391 15.306,-4.165 3.57,-2.777 5.355,-7.555 5.355,-14.332 l 0,-40.026 -12.008,0 -3.137,6.275 c -0.288,-0.505 -1.208,-1.281 -2.757,-2.326 -1.552,-1.046 -3.699,-2.074 -6.437,-3.083 -2.742,-1.009 -5.373,-1.514 -7.897,-1.514 -5.337,0 -9.448,1.53 -12.331,4.597 -2.885,3.064 -4.328,6.616 -4.328,10.655 l 0,5.408 c 0,4.615 1.371,8.402 4.111,11.36 2.74,2.956 6.959,4.416 12.656,4.379 5.695,-0.037 9.951,-0.053 12.765,-0.053 2.813,0 4.218,0.035 4.218,0.108 l 0,2.65 0,1.029 c 0,2.883 -0.614,4.775 -1.838,5.679 -1.227,0.9 -3.678,1.351 -7.356,1.351 -3.679,0 -11.215,-0.397 -22.608,-1.189 l 0,9.302 z"
           style="fill:#42210b;fill-opacity:1;fill-rule:nonzero;stroke:none"
           id="path3357"
           inkscape:connector-curvature="0" /></g><g
         id="g3359"
         transform="translate(170.8423,44.4248)"><path
           d="M 0,0 C 1.73,0 3.1,0.396 4.11,1.19 6.345,3.065 7.463,8.438 7.463,17.308 7.463,23.51 6.85,27.855 5.625,30.344 4.398,32.831 2.523,34.075 0,34.075 c -5.338,0 -9.844,-1.154 -13.521,-3.461 l 0,-28.449 C -9.773,0.721 -5.266,0 0,0 m -5.572,45.109 c 3.209,1.297 6.455,1.947 9.736,1.947 3.281,0 6.148,-0.687 8.6,-2.055 2.451,-1.371 4.398,-3.391 5.841,-6.059 2.667,-5.047 4.002,-12.043 4.002,-20.984 0,-11.684 -1.73,-19.761 -5.191,-24.231 -3.029,-3.75 -7.537,-5.625 -13.521,-5.625 -2.596,0 -5.518,0.342 -8.763,1.028 -3.245,0.683 -6.13,1.567 -8.653,2.65 l 0,-32.02 -15.038,0 0,86.646 12.441,0 2.597,-5.732 c 2.09,1.659 4.74,3.138 7.949,4.435"
           style="fill:#42210b;fill-opacity:1;fill-rule:nonzero;stroke:none"
           id="path3361"
           inkscape:connector-curvature="0" /></g><g
         id="g3363"
         transform="translate(204.2388,101.7295)"><path
           d="m 0,0 0,8.472 c 0,1.668 0.77,2.503 2.31,2.503 l 10.108,0 c 0.705,0 1.251,-0.242 1.637,-0.723 0.385,-0.481 0.577,-1.075 0.577,-1.78 l 0,-8.472 c 0,-1.478 -0.739,-2.215 -2.214,-2.215 l -10.108,0 c -0.706,0 -1.268,0.194 -1.685,0.578 C 0.208,-1.251 0,-0.707 0,0"
           style="fill:#42210b;fill-opacity:1;fill-rule:nonzero;stroke:none"
           id="path3365"
           inkscape:connector-curvature="0" /></g><g
         id="g3367"
         transform="translate(242.019,50.1592)"><path
           d="m 0,0 c 0,-2.164 0.468,-3.589 1.406,-4.273 0.937,-0.687 2.307,-1.028 4.111,-1.028 1.802,0 3.802,0.378 6.004,1.136 2.199,0.757 3.911,1.496 5.138,2.218 l 1.946,1.189 0,10.493 L 4.651,8.653 C 1.55,8.364 0,6.417 0,2.813 L 0,0 z m -13.198,37.86 c 6.562,2.597 15.324,3.895 26.287,3.895 6.634,0 11.736,-1.391 15.307,-4.165 3.569,-2.777 5.354,-7.555 5.354,-14.332 l 0,-40.026 -12.007,0 -3.138,6.275 c -0.289,-0.505 -1.209,-1.281 -2.757,-2.326 -1.552,-1.046 -3.697,-2.074 -6.437,-3.083 -2.742,-1.009 -5.373,-1.514 -7.896,-1.514 -5.338,0 -9.45,1.53 -12.332,4.597 -2.885,3.064 -4.328,6.616 -4.328,10.655 l 0,5.408 c 0,4.615 1.37,8.402 4.112,11.36 2.739,2.956 6.958,4.416 12.655,4.379 5.697,-0.037 9.953,-0.053 12.765,-0.053 2.813,0 4.218,0.035 4.218,0.108 l 0,2.65 0,1.029 c 0,2.883 -0.613,4.775 -1.838,5.679 -1.228,0.9 -3.678,1.351 -7.356,1.351 -3.678,0 -11.215,-0.397 -22.609,-1.189 l 0,9.302 z"
           style="fill:#42210b;fill-opacity:1;fill-rule:nonzero;stroke:none"
           id="path3369"
           inkscape:connector-curvature="0" /></g><g
         id="g3371"
         transform="translate(283.8823,62.166)"><path
           d="m 0,0 c 0,5.769 0.449,10.618 1.353,14.549 0.9,3.93 2.234,6.923 4.002,8.978 1.766,2.056 3.732,3.516 5.895,4.382 2.164,0.865 4.722,1.297 7.681,1.297 10.6,0 19.398,-1.118 26.394,-3.352 l 0,-9.412 c -6.852,0.433 -12.315,0.649 -16.388,0.649 -4.076,0 -6.528,-0.072 -7.357,-0.216 -0.83,-0.146 -1.749,-0.506 -2.758,-1.082 -1.01,-0.578 -1.73,-1.479 -2.163,-2.704 -1.012,-2.958 -1.515,-7.158 -1.515,-12.602 0,-5.447 0.342,-9.357 1.028,-11.737 0.684,-2.38 1.694,-3.948 3.029,-4.706 1.334,-0.757 3.444,-1.136 6.327,-1.136 5.842,0 11.719,0.252 17.634,0.758 l 2.92,0.217 0,-9.52 c -3.318,-1.731 -6.563,-2.741 -9.735,-3.029 -4.69,-0.433 -8.763,-0.649 -12.224,-0.649 l -0.649,0 -4.543,0 c -5.699,0 -10.169,1.91 -13.414,5.733 C 1.839,-19.327 0,-11.467 0,0"
           style="fill:#42210b;fill-opacity:1;fill-rule:nonzero;stroke:none"
           id="path3373"
           inkscape:connector-curvature="0" /></g><g
         id="g3375"
         transform="translate(338.1841,33.3916)"><path
           d="m 0,0 0,84.592 15.145,0 0,-46.406 3.136,0 16.226,19.253 19.256,0 L 32.236,32.452 53.763,0 35.697,0 18.281,26.611 l -3.136,0 L 15.145,0 0,0 z"
           style="fill:#42210b;fill-opacity:1;fill-rule:nonzero;stroke:none"
           id="path3377"
           inkscape:connector-curvature="0" /></g><g
         id="g3379"
         transform="translate(218.978,37.5244)"><path
           d="m 0,0 c 0,-19.741 -2.31,-24.677 -16.064,-24.677 -4.517,0 -9.132,0.312 -9.132,0.312 l 0,11.864 c 0,0 4.72,0.109 5.666,0.109 3.046,0 4.935,1.156 4.935,7.246 l 0,58.068 L 0,52.922 0,0 z"
           style="fill:#42210b;fill-opacity:1;fill-rule:nonzero;stroke:none"
           id="path3381"
           inkscape:connector-curvature="0" /></g></g><g
       transform="translate(444.0863,277.41803)"
       id="g3443"><path
         inkscape:connector-curvature="0"
         d="m 228.619,243.629 -31.651,0 0,31.652 31.651,0 0,-31.652 z"
         style="fill:#f9bf30;fill-opacity:1;fill-rule:nonzero;stroke:none"
         id="path3445" /><path
         inkscape:connector-curvature="0"
         d="m 184.203,256.902 -19.399,0 0,19.4 19.399,0 0,-19.4 z"
         style="fill:#f9bf30;fill-opacity:1;fill-rule:nonzero;stroke:none"
         id="path3447" /><path
         inkscape:connector-curvature="0"
         d="m 203.092,287.024 -14.295,0 0,14.295 14.295,0 0,-14.295 z"
         style="fill:#f9bf30;fill-opacity:1;fill-rule:nonzero;stroke:none"
         id="path3449" /><g
         id="g3451"
         transform="translate(285.3716,224.5508)"><path
           d="m 0,0 c 0,-4.418 -3.582,-8 -8,-8 l -158,0 c -4.418,0 -8,3.582 -8,8 0,4.419 3.582,8 8,8 L -8,8 C -3.582,8 0,4.419 0,0"
           style="fill:#7f3c05;fill-opacity:1;fill-rule:nonzero;stroke:none"
           id="path3453"
           inkscape:connector-curvature="0" /></g><g
         id="g3455"
         transform="translate(285.3716,198.5508)"><path
           d="m 0,0 c 0,-4.418 -3.582,-8 -8,-8 l -158,0 c -4.418,0 -8,3.582 -8,8 0,4.419 3.582,8 8,8 L -8,8 C -3.582,8 0,4.419 0,0"
           style="fill:#7f3c05;fill-opacity:1;fill-rule:nonzero;stroke:none"
           id="path3457"
           inkscape:connector-curvature="0" /></g><g
         id="g3459"
         transform="translate(285.3716,171.5508)"><path
           d="m 0,0 c 0,-4.418 -3.582,-8 -8,-8 l -158,0 c -4.418,0 -8,3.582 -8,8 0,4.419 3.582,8 8,8 L -8,8 C -3.582,8 0,4.419 0,0"
           style="fill:#7f3c05;fill-opacity:1;fill-rule:nonzero;stroke:none"
           id="path3461"
           inkscape:connector-curvature="0" /></g><g
         id="g3463"
         transform="translate(285.3716,145.5508)"><path
           d="m 0,0 c 0,-4.418 -3.582,-8 -8,-8 l -158,0 c -4.418,0 -8,3.582 -8,8 0,4.419 3.582,8 8,8 L -8,8 C -3.582,8 0,4.419 0,0"
           style="fill:#7f3c05;fill-opacity:1;fill-rule:nonzero;stroke:none"
           id="path3465"
           inkscape:connector-curvature="0" /></g></g><g
       transform="translate(792.73949,301.29947)"
       id="g3467"><path
         inkscape:connector-curvature="0"
         d="m 228.619,243.629 -31.651,0 0,31.652 31.651,0 0,-31.652 z"
         style="fill:#f9bf30;fill-opacity:1;fill-rule:nonzero;stroke:none"
         id="path3469" /><path
         inkscape:connector-curvature="0"
         d="m 184.203,256.902 -19.399,0 0,19.4 19.399,0 0,-19.4 z"
         style="fill:#f9bf30;fill-opacity:1;fill-rule:nonzero;stroke:none"
         id="path3471" /><path
         inkscape:connector-curvature="0"
         d="m 203.092,287.024 -14.295,0 0,14.295 14.295,0 0,-14.295 z"
         style="fill:#f9bf30;fill-opacity:1;fill-rule:nonzero;stroke:none"
         id="path3473" /><g
         id="g3475"
         transform="translate(285.3716,224.5508)"><path
           d="m 0,0 c 0,-4.418 -3.582,-8 -8,-8 l -158,0 c -4.418,0 -8,3.582 -8,8 0,4.419 3.582,8 8,8 L -8,8 C -3.582,8 0,4.419 0,0"
           style="fill:#7f3c05;fill-opacity:1;fill-rule:nonzero;stroke:none"
           id="path3477"
           inkscape:connector-curvature="0" /></g><g
         id="g3479"
         transform="translate(285.3716,198.5508)"><path
           d="m 0,0 c 0,-4.418 -3.582,-8 -8,-8 l -158,0 c -4.418,0 -8,3.582 -8,8 0,4.419 3.582,8 8,8 L -8,8 C -3.582,8 0,4.419 0,0"
           style="fill:#7f3c05;fill-opacity:1;fill-rule:nonzero;stroke:none"
           id="path3481"
           inkscape:connector-curvature="0" /></g><g
         id="g3483"
         transform="translate(285.3716,171.5508)"><path
           d="m 0,0 c 0,-4.418 -3.582,-8 -8,-8 l -158,0 c -4.418,0 -8,3.582 -8,8 0,4.419 3.582,8 8,8 L -8,8 C -3.582,8 0,4.419 0,0"
           style="fill:#7f3c05;fill-opacity:1;fill-rule:nonzero;stroke:none"
           id="path3485"
           inkscape:connector-curvature="0" /></g><g
         id="g3487"
         transform="translate(285.3716,145.5508)"><path
           d="m 0,0 c 0,-4.418 -3.582,-8 -8,-8 l -158,0 c -4.418,0 -8,3.582 -8,8 0,4.419 3.582,8 8,8 L -8,8 C -3.582,8 0,4.419 0,0"
           style="fill:#7f3c05;fill-opacity:1;fill-rule:nonzero;stroke:none"
           id="path3489"
           inkscape:connector-curvature="0" /></g></g><g
       transform="matrix(1.0936423,0,0,1.0936423,1101.9542,426.15414)"
       id="g3491"><g
         id="g3493"
         transform="translate(4.7964,79.2568)"><path
           d="m 0,0 0,9.736 9.087,1.838 0,4.869 c 0,15.145 7.101,22.716 21.309,22.716 l 32.238,-0.216 0,-61.983 c 0,-3.895 0.358,-6.564 1.081,-8.005 0.72,-1.444 2.017,-2.525 3.893,-3.246 4.328,-1.514 6.744,-2.272 7.248,-2.272 l 0,-9.302 -12.548,0 c -5.193,0 -8.961,1.531 -11.305,4.597 -2.344,3.065 -3.516,8.347 -3.516,15.848 l 0,53.005 -14.17,0.107 c -2.091,0 -3.785,-0.324 -5.084,-0.972 -2.669,-1.228 -4.002,-4.652 -4.002,-10.277 l 0,-4.869 12.981,0 0,-11.574 -13.09,0 0,-45.865 -15.143,0 L 8.979,0 0,0 z"
           style="fill:#42210b;fill-opacity:1;fill-rule:nonzero;stroke:none"
           id="path3495"
           inkscape:connector-curvature="0" /></g><g
         id="g3497"
         transform="translate(99.5552,50.1592)"><path
           d="m 0,0 c 0,-2.164 0.469,-3.589 1.406,-4.273 0.938,-0.687 2.308,-1.028 4.112,-1.028 1.8,0 3.802,0.378 6.003,1.136 2.2,0.757 3.911,1.496 5.139,2.218 l 1.946,1.189 0,10.493 L 4.652,8.653 C 1.551,8.364 0,6.417 0,2.813 L 0,0 z m -13.196,37.86 c 6.561,2.597 15.323,3.895 26.286,3.895 6.634,0 11.737,-1.391 15.306,-4.165 3.57,-2.777 5.355,-7.555 5.355,-14.332 l 0,-40.026 -12.008,0 -3.137,6.275 c -0.288,-0.505 -1.208,-1.281 -2.757,-2.326 -1.552,-1.046 -3.699,-2.074 -6.437,-3.083 -2.742,-1.009 -5.373,-1.514 -7.897,-1.514 -5.337,0 -9.448,1.53 -12.331,4.597 -2.885,3.064 -4.328,6.616 -4.328,10.655 l 0,5.408 c 0,4.615 1.371,8.402 4.111,11.36 2.74,2.956 6.959,4.416 12.656,4.379 5.695,-0.037 9.951,-0.053 12.765,-0.053 2.813,0 4.218,0.035 4.218,0.108 l 0,2.65 0,1.029 c 0,2.883 -0.614,4.775 -1.838,5.679 -1.227,0.9 -3.678,1.351 -7.356,1.351 -3.679,0 -11.215,-0.397 -22.608,-1.189 l 0,9.302 z"
           style="fill:#42210b;fill-opacity:1;fill-rule:nonzero;stroke:none"
           id="path3499"
           inkscape:connector-curvature="0" /></g><g
         id="g3501"
         transform="translate(170.8423,44.4248)"><path
           d="M 0,0 C 1.73,0 3.1,0.396 4.11,1.19 6.345,3.065 7.463,8.438 7.463,17.308 7.463,23.51 6.85,27.855 5.625,30.344 4.398,32.831 2.523,34.075 0,34.075 c -5.338,0 -9.844,-1.154 -13.521,-3.461 l 0,-28.449 C -9.773,0.721 -5.266,0 0,0 m -5.572,45.109 c 3.209,1.297 6.455,1.947 9.736,1.947 3.281,0 6.148,-0.687 8.6,-2.055 2.451,-1.371 4.398,-3.391 5.841,-6.059 2.667,-5.047 4.002,-12.043 4.002,-20.984 0,-11.684 -1.73,-19.761 -5.191,-24.231 -3.029,-3.75 -7.537,-5.625 -13.521,-5.625 -2.596,0 -5.518,0.342 -8.763,1.028 -3.245,0.683 -6.13,1.567 -8.653,2.65 l 0,-32.02 -15.038,0 0,86.646 12.441,0 2.597,-5.732 c 2.09,1.659 4.74,3.138 7.949,4.435"
           style="fill:#42210b;fill-opacity:1;fill-rule:nonzero;stroke:none"
           id="path3503"
           inkscape:connector-curvature="0" /></g><g
         id="g3505"
         transform="translate(204.2388,101.7295)"><path
           d="m 0,0 0,8.472 c 0,1.668 0.77,2.503 2.31,2.503 l 10.108,0 c 0.705,0 1.251,-0.242 1.637,-0.723 0.385,-0.481 0.577,-1.075 0.577,-1.78 l 0,-8.472 c 0,-1.478 -0.739,-2.215 -2.214,-2.215 l -10.108,0 c -0.706,0 -1.268,0.194 -1.685,0.578 C 0.208,-1.251 0,-0.707 0,0"
           style="fill:#42210b;fill-opacity:1;fill-rule:nonzero;stroke:none"
           id="path3507"
           inkscape:connector-curvature="0" /></g><g
         id="g3509"
         transform="translate(242.019,50.1592)"><path
           d="m 0,0 c 0,-2.164 0.468,-3.589 1.406,-4.273 0.937,-0.687 2.307,-1.028 4.111,-1.028 1.802,0 3.802,0.378 6.004,1.136 2.199,0.757 3.911,1.496 5.138,2.218 l 1.946,1.189 0,10.493 L 4.651,8.653 C 1.55,8.364 0,6.417 0,2.813 L 0,0 z m -13.198,37.86 c 6.562,2.597 15.324,3.895 26.287,3.895 6.634,0 11.736,-1.391 15.307,-4.165 3.569,-2.777 5.354,-7.555 5.354,-14.332 l 0,-40.026 -12.007,0 -3.138,6.275 c -0.289,-0.505 -1.209,-1.281 -2.757,-2.326 -1.552,-1.046 -3.697,-2.074 -6.437,-3.083 -2.742,-1.009 -5.373,-1.514 -7.896,-1.514 -5.338,0 -9.45,1.53 -12.332,4.597 -2.885,3.064 -4.328,6.616 -4.328,10.655 l 0,5.408 c 0,4.615 1.37,8.402 4.112,11.36 2.739,2.956 6.958,4.416 12.655,4.379 5.697,-0.037 9.953,-0.053 12.765,-0.053 2.813,0 4.218,0.035 4.218,0.108 l 0,2.65 0,1.029 c 0,2.883 -0.613,4.775 -1.838,5.679 -1.228,0.9 -3.678,1.351 -7.356,1.351 -3.678,0 -11.215,-0.397 -22.609,-1.189 l 0,9.302 z"
           style="fill:#42210b;fill-opacity:1;fill-rule:nonzero;stroke:none"
           id="path3511"
           inkscape:connector-curvature="0" /></g><g
         id="g3513"
         transform="translate(283.8823,62.166)"><path
           d="m 0,0 c 0,5.769 0.449,10.618 1.353,14.549 0.9,3.93 2.234,6.923 4.002,8.978 1.766,2.056 3.732,3.516 5.895,4.382 2.164,0.865 4.722,1.297 7.681,1.297 10.6,0 19.398,-1.118 26.394,-3.352 l 0,-9.412 c -6.852,0.433 -12.315,0.649 -16.388,0.649 -4.076,0 -6.528,-0.072 -7.357,-0.216 -0.83,-0.146 -1.749,-0.506 -2.758,-1.082 -1.01,-0.578 -1.73,-1.479 -2.163,-2.704 -1.012,-2.958 -1.515,-7.158 -1.515,-12.602 0,-5.447 0.342,-9.357 1.028,-11.737 0.684,-2.38 1.694,-3.948 3.029,-4.706 1.334,-0.757 3.444,-1.136 6.327,-1.136 5.842,0 11.719,0.252 17.634,0.758 l 2.92,0.217 0,-9.52 c -3.318,-1.731 -6.563,-2.741 -9.735,-3.029 -4.69,-0.433 -8.763,-0.649 -12.224,-0.649 l -0.649,0 -4.543,0 c -5.699,0 -10.169,1.91 -13.414,5.733 C 1.839,-19.327 0,-11.467 0,0"
           style="fill:#42210b;fill-opacity:1;fill-rule:nonzero;stroke:none"
           id="path3515"
           inkscape:connector-curvature="0" /></g><g
         id="g3517"
         transform="translate(338.1841,33.3916)"><path
           d="m 0,0 0,84.592 15.145,0 0,-46.406 3.136,0 16.226,19.253 19.256,0 L 32.236,32.452 53.763,0 35.697,0 18.281,26.611 l -3.136,0 L 15.145,0 0,0 z"
           style="fill:#42210b;fill-opacity:1;fill-rule:nonzero;stroke:none"
           id="path3519"
           inkscape:connector-curvature="0" /></g><g
         id="g3521"
         transform="translate(218.978,37.5244)"><path
           d="m 0,0 c 0,-19.741 -2.31,-24.677 -16.064,-24.677 -4.517,0 -9.132,0.312 -9.132,0.312 l 0,11.864 c 0,0 4.72,0.109 5.666,0.109 3.046,0 4.935,1.156 4.935,7.246 l 0,58.068 L 0,52.922 0,0 z"
           style="fill:#42210b;fill-opacity:1;fill-rule:nonzero;stroke:none"
           id="path3523"
           inkscape:connector-curvature="0" /></g></g><g
       id="g3525"
       transform="matrix(0.98517896,0,0,0.98517896,787.46867,-187.08215)"><path
         id="path3527"
         style="fill:#f9bf30;fill-opacity:1;fill-rule:nonzero;stroke:none"
         d="m 228.619,243.629 -31.651,0 0,31.652 31.651,0 0,-31.652 z"
         inkscape:connector-curvature="0" /><path
         id="path3529"
         style="fill:#f9bf30;fill-opacity:1;fill-rule:nonzero;stroke:none"
         d="m 184.203,256.902 -19.399,0 0,19.4 19.399,0 0,-19.4 z"
         inkscape:connector-curvature="0" /><path
         id="path3531"
         style="fill:#f9bf30;fill-opacity:1;fill-rule:nonzero;stroke:none"
         d="m 203.092,287.024 -14.295,0 0,14.295 14.295,0 0,-14.295 z"
         inkscape:connector-curvature="0" /><g
         transform="translate(285.3716,224.5508)"
         id="g3533"><path
           inkscape:connector-curvature="0"
           id="path3535"
           style="fill:#7f3c05;fill-opacity:1;fill-rule:nonzero;stroke:none"
           d="m 0,0 c 0,-4.418 -3.582,-8 -8,-8 l -158,0 c -4.418,0 -8,3.582 -8,8 0,4.419 3.582,8 8,8 L -8,8 C -3.582,8 0,4.419 0,0" /></g><g
         transform="translate(285.3716,198.5508)"
         id="g3537"><path
           inkscape:connector-curvature="0"
           id="path3539"
           style="fill:#7f3c05;fill-opacity:1;fill-rule:nonzero;stroke:none"
           d="m 0,0 c 0,-4.418 -3.582,-8 -8,-8 l -158,0 c -4.418,0 -8,3.582 -8,8 0,4.419 3.582,8 8,8 L -8,8 C -3.582,8 0,4.419 0,0" /></g><g
         transform="translate(285.3716,171.5508)"
         id="g3541"><path
           inkscape:connector-curvature="0"
           id="path3543"
           style="fill:#7f3c05;fill-opacity:1;fill-rule:nonzero;stroke:none"
           d="m 0,0 c 0,-4.418 -3.582,-8 -8,-8 l -158,0 c -4.418,0 -8,3.582 -8,8 0,4.419 3.582,8 8,8 L -8,8 C -3.582,8 0,4.419 0,0" /></g><g
         transform="translate(285.3716,145.5508)"
         id="g3545"><path
           inkscape:connector-curvature="0"
           id="path3547"
           style="fill:#7f3c05;fill-opacity:1;fill-rule:nonzero;stroke:none"
           d="m 0,0 c 0,-4.418 -3.582,-8 -8,-8 l -158,0 c -4.418,0 -8,3.582 -8,8 0,4.419 3.582,8 8,8 L -8,8 C -3.582,8 0,4.419 0,0" /></g></g><g
       id="g3549"
       transform="matrix(1.4414235,0,0,1.4414235,1106.608,-88.926152)"><g
         transform="translate(4.7964,79.2568)"
         id="g3551"><path
           inkscape:connector-curvature="0"
           id="path3553"
           style="fill:#42210b;fill-opacity:1;fill-rule:nonzero;stroke:none"
           d="m 0,0 0,9.736 9.087,1.838 0,4.869 c 0,15.145 7.101,22.716 21.309,22.716 l 32.238,-0.216 0,-61.983 c 0,-3.895 0.358,-6.564 1.081,-8.005 0.72,-1.444 2.017,-2.525 3.893,-3.246 4.328,-1.514 6.744,-2.272 7.248,-2.272 l 0,-9.302 -12.548,0 c -5.193,0 -8.961,1.531 -11.305,4.597 -2.344,3.065 -3.516,8.347 -3.516,15.848 l 0,53.005 -14.17,0.107 c -2.091,0 -3.785,-0.324 -5.084,-0.972 -2.669,-1.228 -4.002,-4.652 -4.002,-10.277 l 0,-4.869 12.981,0 0,-11.574 -13.09,0 0,-45.865 -15.143,0 L 8.979,0 0,0 z" /></g><g
         transform="translate(99.5552,50.1592)"
         id="g3555"><path
           inkscape:connector-curvature="0"
           id="path3557"
           style="fill:#42210b;fill-opacity:1;fill-rule:nonzero;stroke:none"
           d="m 0,0 c 0,-2.164 0.469,-3.589 1.406,-4.273 0.938,-0.687 2.308,-1.028 4.112,-1.028 1.8,0 3.802,0.378 6.003,1.136 2.2,0.757 3.911,1.496 5.139,2.218 l 1.946,1.189 0,10.493 L 4.652,8.653 C 1.551,8.364 0,6.417 0,2.813 L 0,0 z m -13.196,37.86 c 6.561,2.597 15.323,3.895 26.286,3.895 6.634,0 11.737,-1.391 15.306,-4.165 3.57,-2.777 5.355,-7.555 5.355,-14.332 l 0,-40.026 -12.008,0 -3.137,6.275 c -0.288,-0.505 -1.208,-1.281 -2.757,-2.326 -1.552,-1.046 -3.699,-2.074 -6.437,-3.083 -2.742,-1.009 -5.373,-1.514 -7.897,-1.514 -5.337,0 -9.448,1.53 -12.331,4.597 -2.885,3.064 -4.328,6.616 -4.328,10.655 l 0,5.408 c 0,4.615 1.371,8.402 4.111,11.36 2.74,2.956 6.959,4.416 12.656,4.379 5.695,-0.037 9.951,-0.053 12.765,-0.053 2.813,0 4.218,0.035 4.218,0.108 l 0,2.65 0,1.029 c 0,2.883 -0.614,4.775 -1.838,5.679 -1.227,0.9 -3.678,1.351 -7.356,1.351 -3.679,0 -11.215,-0.397 -22.608,-1.189 l 0,9.302 z" /></g><g
         transform="translate(170.8423,44.4248)"
         id="g3559"><path
           inkscape:connector-curvature="0"
           id="path3561"
           style="fill:#42210b;fill-opacity:1;fill-rule:nonzero;stroke:none"
           d="M 0,0 C 1.73,0 3.1,0.396 4.11,1.19 6.345,3.065 7.463,8.438 7.463,17.308 7.463,23.51 6.85,27.855 5.625,30.344 4.398,32.831 2.523,34.075 0,34.075 c -5.338,0 -9.844,-1.154 -13.521,-3.461 l 0,-28.449 C -9.773,0.721 -5.266,0 0,0 m -5.572,45.109 c 3.209,1.297 6.455,1.947 9.736,1.947 3.281,0 6.148,-0.687 8.6,-2.055 2.451,-1.371 4.398,-3.391 5.841,-6.059 2.667,-5.047 4.002,-12.043 4.002,-20.984 0,-11.684 -1.73,-19.761 -5.191,-24.231 -3.029,-3.75 -7.537,-5.625 -13.521,-5.625 -2.596,0 -5.518,0.342 -8.763,1.028 -3.245,0.683 -6.13,1.567 -8.653,2.65 l 0,-32.02 -15.038,0 0,86.646 12.441,0 2.597,-5.732 c 2.09,1.659 4.74,3.138 7.949,4.435" /></g><g
         transform="translate(204.2388,101.7295)"
         id="g3563"><path
           inkscape:connector-curvature="0"
           id="path3565"
           style="fill:#42210b;fill-opacity:1;fill-rule:nonzero;stroke:none"
           d="m 0,0 0,8.472 c 0,1.668 0.77,2.503 2.31,2.503 l 10.108,0 c 0.705,0 1.251,-0.242 1.637,-0.723 0.385,-0.481 0.577,-1.075 0.577,-1.78 l 0,-8.472 c 0,-1.478 -0.739,-2.215 -2.214,-2.215 l -10.108,0 c -0.706,0 -1.268,0.194 -1.685,0.578 C 0.208,-1.251 0,-0.707 0,0" /></g><g
         transform="translate(242.019,50.1592)"
         id="g3567"><path
           inkscape:connector-curvature="0"
           id="path3569"
           style="fill:#42210b;fill-opacity:1;fill-rule:nonzero;stroke:none"
           d="m 0,0 c 0,-2.164 0.468,-3.589 1.406,-4.273 0.937,-0.687 2.307,-1.028 4.111,-1.028 1.802,0 3.802,0.378 6.004,1.136 2.199,0.757 3.911,1.496 5.138,2.218 l 1.946,1.189 0,10.493 L 4.651,8.653 C 1.55,8.364 0,6.417 0,2.813 L 0,0 z m -13.198,37.86 c 6.562,2.597 15.324,3.895 26.287,3.895 6.634,0 11.736,-1.391 15.307,-4.165 3.569,-2.777 5.354,-7.555 5.354,-14.332 l 0,-40.026 -12.007,0 -3.138,6.275 c -0.289,-0.505 -1.209,-1.281 -2.757,-2.326 -1.552,-1.046 -3.697,-2.074 -6.437,-3.083 -2.742,-1.009 -5.373,-1.514 -7.896,-1.514 -5.338,0 -9.45,1.53 -12.332,4.597 -2.885,3.064 -4.328,6.616 -4.328,10.655 l 0,5.408 c 0,4.615 1.37,8.402 4.112,11.36 2.739,2.956 6.958,4.416 12.655,4.379 5.697,-0.037 9.953,-0.053 12.765,-0.053 2.813,0 4.218,0.035 4.218,0.108 l 0,2.65 0,1.029 c 0,2.883 -0.613,4.775 -1.838,5.679 -1.228,0.9 -3.678,1.351 -7.356,1.351 -3.678,0 -11.215,-0.397 -22.609,-1.189 l 0,9.302 z" /></g><g
         transform="translate(283.8823,62.166)"
         id="g3571"><path
           inkscape:connector-curvature="0"
           id="path3573"
           style="fill:#42210b;fill-opacity:1;fill-rule:nonzero;stroke:none"
           d="m 0,0 c 0,5.769 0.449,10.618 1.353,14.549 0.9,3.93 2.234,6.923 4.002,8.978 1.766,2.056 3.732,3.516 5.895,4.382 2.164,0.865 4.722,1.297 7.681,1.297 10.6,0 19.398,-1.118 26.394,-3.352 l 0,-9.412 c -6.852,0.433 -12.315,0.649 -16.388,0.649 -4.076,0 -6.528,-0.072 -7.357,-0.216 -0.83,-0.146 -1.749,-0.506 -2.758,-1.082 -1.01,-0.578 -1.73,-1.479 -2.163,-2.704 -1.012,-2.958 -1.515,-7.158 -1.515,-12.602 0,-5.447 0.342,-9.357 1.028,-11.737 0.684,-2.38 1.694,-3.948 3.029,-4.706 1.334,-0.757 3.444,-1.136 6.327,-1.136 5.842,0 11.719,0.252 17.634,0.758 l 2.92,0.217 0,-9.52 c -3.318,-1.731 -6.563,-2.741 -9.735,-3.029 -4.69,-0.433 -8.763,-0.649 -12.224,-0.649 l -0.649,0 -4.543,0 c -5.699,0 -10.169,1.91 -13.414,5.733 C 1.839,-19.327 0,-11.467 0,0" /></g><g
         transform="translate(338.1841,33.3916)"
         id="g3575"><path
           inkscape:connector-curvature="0"
           id="path3577"
           style="fill:#42210b;fill-opacity:1;fill-rule:nonzero;stroke:none"
           d="m 0,0 0,84.592 15.145,0 0,-46.406 3.136,0 16.226,19.253 19.256,0 L 32.236,32.452 53.763,0 35.697,0 18.281,26.611 l -3.136,0 L 15.145,0 0,0 z" /></g><g
         transform="translate(218.978,37.5244)"
         id="g3579"><path
           inkscape:connector-curvature="0"
           id="path3581"
           style="fill:#42210b;fill-opacity:1;fill-rule:nonzero;stroke:none"
           d="m 0,0 c 0,-19.741 -2.31,-24.677 -16.064,-24.677 -4.517,0 -9.132,0.312 -9.132,0.312 l 0,11.864 c 0,0 4.72,0.109 5.666,0.109 3.046,0 4.935,1.156 4.935,7.246 l 0,58.068 L 0,52.922 0,0 z" /></g></g><g
       id="g3583"
       transform="translate(786.37111,-411.95947)"><path
         id="path3585"
         style="fill:#f9bf30;fill-opacity:1;fill-rule:nonzero;stroke:none"
         d="m 228.619,243.629 -31.651,0 0,31.652 31.651,0 0,-31.652 z"
         inkscape:connector-curvature="0" /><path
         id="path3587"
         style="fill:#f9bf30;fill-opacity:1;fill-rule:nonzero;stroke:none"
         d="m 184.203,256.902 -19.399,0 0,19.4 19.399,0 0,-19.4 z"
         inkscape:connector-curvature="0" /><path
         id="path3589"
         style="fill:#f9bf30;fill-opacity:1;fill-rule:nonzero;stroke:none"
         d="m 203.092,287.024 -14.295,0 0,14.295 14.295,0 0,-14.295 z"
         inkscape:connector-curvature="0" /><g
         transform="translate(285.3716,224.5508)"
         id="g3591"><path
           inkscape:connector-curvature="0"
           id="path3593"
           style="fill:#7f3c05;fill-opacity:1;fill-rule:nonzero;stroke:none"
           d="m 0,0 c 0,-4.418 -3.582,-8 -8,-8 l -158,0 c -4.418,0 -8,3.582 -8,8 0,4.419 3.582,8 8,8 L -8,8 C -3.582,8 0,4.419 0,0" /></g><g
         transform="translate(285.3716,198.5508)"
         id="g3595"><path
           inkscape:connector-curvature="0"
           id="path3597"
           style="fill:#7f3c05;fill-opacity:1;fill-rule:nonzero;stroke:none"
           d="m 0,0 c 0,-4.418 -3.582,-8 -8,-8 l -158,0 c -4.418,0 -8,3.582 -8,8 0,4.419 3.582,8 8,8 L -8,8 C -3.582,8 0,4.419 0,0" /></g><g
         transform="translate(285.3716,171.5508)"
         id="g3599"><path
           inkscape:connector-curvature="0"
           id="path3601"
           style="fill:#7f3c05;fill-opacity:1;fill-rule:nonzero;stroke:none"
           d="m 0,0 c 0,-4.418 -3.582,-8 -8,-8 l -158,0 c -4.418,0 -8,3.582 -8,8 0,4.419 3.582,8 8,8 L -8,8 C -3.582,8 0,4.419 0,0" /></g><g
         transform="translate(285.3716,145.5508)"
         id="g3603"><path
           inkscape:connector-curvature="0"
           id="path3605"
           style="fill:#7f3c05;fill-opacity:1;fill-rule:nonzero;stroke:none"
           d="m 0,0 c 0,-4.418 -3.582,-8 -8,-8 l -158,0 c -4.418,0 -8,3.582 -8,8 0,4.419 3.582,8 8,8 L -8,8 C -3.582,8 0,4.419 0,0" /></g></g><g
       id="g3607"
       transform="matrix(1.0936423,0,0,1.0936423,1095.5858,-309.5048)"><g
         transform="translate(4.7964,79.2568)"
         id="g3609"><path
           inkscape:connector-curvature="0"
           id="path3611"
           style="fill:#42210b;fill-opacity:1;fill-rule:nonzero;stroke:none"
           d="m 0,0 0,9.736 9.087,1.838 0,4.869 c 0,15.145 7.101,22.716 21.309,22.716 l 32.238,-0.216 0,-61.983 c 0,-3.895 0.358,-6.564 1.081,-8.005 0.72,-1.444 2.017,-2.525 3.893,-3.246 4.328,-1.514 6.744,-2.272 7.248,-2.272 l 0,-9.302 -12.548,0 c -5.193,0 -8.961,1.531 -11.305,4.597 -2.344,3.065 -3.516,8.347 -3.516,15.848 l 0,53.005 -14.17,0.107 c -2.091,0 -3.785,-0.324 -5.084,-0.972 -2.669,-1.228 -4.002,-4.652 -4.002,-10.277 l 0,-4.869 12.981,0 0,-11.574 -13.09,0 0,-45.865 -15.143,0 L 8.979,0 0,0 z" /></g><g
         transform="translate(99.5552,50.1592)"
         id="g3613"><path
           inkscape:connector-curvature="0"
           id="path3615"
           style="fill:#42210b;fill-opacity:1;fill-rule:nonzero;stroke:none"
           d="m 0,0 c 0,-2.164 0.469,-3.589 1.406,-4.273 0.938,-0.687 2.308,-1.028 4.112,-1.028 1.8,0 3.802,0.378 6.003,1.136 2.2,0.757 3.911,1.496 5.139,2.218 l 1.946,1.189 0,10.493 L 4.652,8.653 C 1.551,8.364 0,6.417 0,2.813 L 0,0 z m -13.196,37.86 c 6.561,2.597 15.323,3.895 26.286,3.895 6.634,0 11.737,-1.391 15.306,-4.165 3.57,-2.777 5.355,-7.555 5.355,-14.332 l 0,-40.026 -12.008,0 -3.137,6.275 c -0.288,-0.505 -1.208,-1.281 -2.757,-2.326 -1.552,-1.046 -3.699,-2.074 -6.437,-3.083 -2.742,-1.009 -5.373,-1.514 -7.897,-1.514 -5.337,0 -9.448,1.53 -12.331,4.597 -2.885,3.064 -4.328,6.616 -4.328,10.655 l 0,5.408 c 0,4.615 1.371,8.402 4.111,11.36 2.74,2.956 6.959,4.416 12.656,4.379 5.695,-0.037 9.951,-0.053 12.765,-0.053 2.813,0 4.218,0.035 4.218,0.108 l 0,2.65 0,1.029 c 0,2.883 -0.614,4.775 -1.838,5.679 -1.227,0.9 -3.678,1.351 -7.356,1.351 -3.679,0 -11.215,-0.397 -22.608,-1.189 l 0,9.302 z" /></g><g
         transform="translate(170.8423,44.4248)"
         id="g3617"><path
           inkscape:connector-curvature="0"
           id="path3619"
           style="fill:#42210b;fill-opacity:1;fill-rule:nonzero;stroke:none"
           d="M 0,0 C 1.73,0 3.1,0.396 4.11,1.19 6.345,3.065 7.463,8.438 7.463,17.308 7.463,23.51 6.85,27.855 5.625,30.344 4.398,32.831 2.523,34.075 0,34.075 c -5.338,0 -9.844,-1.154 -13.521,-3.461 l 0,-28.449 C -9.773,0.721 -5.266,0 0,0 m -5.572,45.109 c 3.209,1.297 6.455,1.947 9.736,1.947 3.281,0 6.148,-0.687 8.6,-2.055 2.451,-1.371 4.398,-3.391 5.841,-6.059 2.667,-5.047 4.002,-12.043 4.002,-20.984 0,-11.684 -1.73,-19.761 -5.191,-24.231 -3.029,-3.75 -7.537,-5.625 -13.521,-5.625 -2.596,0 -5.518,0.342 -8.763,1.028 -3.245,0.683 -6.13,1.567 -8.653,2.65 l 0,-32.02 -15.038,0 0,86.646 12.441,0 2.597,-5.732 c 2.09,1.659 4.74,3.138 7.949,4.435" /></g><g
         transform="translate(204.2388,101.7295)"
         id="g3621"><path
           inkscape:connector-curvature="0"
           id="path3623"
           style="fill:#42210b;fill-opacity:1;fill-rule:nonzero;stroke:none"
           d="m 0,0 0,8.472 c 0,1.668 0.77,2.503 2.31,2.503 l 10.108,0 c 0.705,0 1.251,-0.242 1.637,-0.723 0.385,-0.481 0.577,-1.075 0.577,-1.78 l 0,-8.472 c 0,-1.478 -0.739,-2.215 -2.214,-2.215 l -10.108,0 c -0.706,0 -1.268,0.194 -1.685,0.578 C 0.208,-1.251 0,-0.707 0,0" /></g><g
         transform="translate(242.019,50.1592)"
         id="g3625"><path
           inkscape:connector-curvature="0"
           id="path3627"
           style="fill:#42210b;fill-opacity:1;fill-rule:nonzero;stroke:none"
           d="m 0,0 c 0,-2.164 0.468,-3.589 1.406,-4.273 0.937,-0.687 2.307,-1.028 4.111,-1.028 1.802,0 3.802,0.378 6.004,1.136 2.199,0.757 3.911,1.496 5.138,2.218 l 1.946,1.189 0,10.493 L 4.651,8.653 C 1.55,8.364 0,6.417 0,2.813 L 0,0 z m -13.198,37.86 c 6.562,2.597 15.324,3.895 26.287,3.895 6.634,0 11.736,-1.391 15.307,-4.165 3.569,-2.777 5.354,-7.555 5.354,-14.332 l 0,-40.026 -12.007,0 -3.138,6.275 c -0.289,-0.505 -1.209,-1.281 -2.757,-2.326 -1.552,-1.046 -3.697,-2.074 -6.437,-3.083 -2.742,-1.009 -5.373,-1.514 -7.896,-1.514 -5.338,0 -9.45,1.53 -12.332,4.597 -2.885,3.064 -4.328,6.616 -4.328,10.655 l 0,5.408 c 0,4.615 1.37,8.402 4.112,11.36 2.739,2.956 6.958,4.416 12.655,4.379 5.697,-0.037 9.953,-0.053 12.765,-0.053 2.813,0 4.218,0.035 4.218,0.108 l 0,2.65 0,1.029 c 0,2.883 -0.613,4.775 -1.838,5.679 -1.228,0.9 -3.678,1.351 -7.356,1.351 -3.678,0 -11.215,-0.397 -22.609,-1.189 l 0,9.302 z" /></g><g
         transform="translate(283.8823,62.166)"
         id="g3629"><path
           inkscape:connector-curvature="0"
           id="path3631"
           style="fill:#42210b;fill-opacity:1;fill-rule:nonzero;stroke:none"
           d="m 0,0 c 0,5.769 0.449,10.618 1.353,14.549 0.9,3.93 2.234,6.923 4.002,8.978 1.766,2.056 3.732,3.516 5.895,4.382 2.164,0.865 4.722,1.297 7.681,1.297 10.6,0 19.398,-1.118 26.394,-3.352 l 0,-9.412 c -6.852,0.433 -12.315,0.649 -16.388,0.649 -4.076,0 -6.528,-0.072 -7.357,-0.216 -0.83,-0.146 -1.749,-0.506 -2.758,-1.082 -1.01,-0.578 -1.73,-1.479 -2.163,-2.704 -1.012,-2.958 -1.515,-7.158 -1.515,-12.602 0,-5.447 0.342,-9.357 1.028,-11.737 0.684,-2.38 1.694,-3.948 3.029,-4.706 1.334,-0.757 3.444,-1.136 6.327,-1.136 5.842,0 11.719,0.252 17.634,0.758 l 2.92,0.217 0,-9.52 c -3.318,-1.731 -6.563,-2.741 -9.735,-3.029 -4.69,-0.433 -8.763,-0.649 -12.224,-0.649 l -0.649,0 -4.543,0 c -5.699,0 -10.169,1.91 -13.414,5.733 C 1.839,-19.327 0,-11.467 0,0" /></g><g
         transform="translate(338.1841,33.3916)"
         id="g3633"><path
           inkscape:connector-curvature="0"
           id="path3635"
           style="fill:#42210b;fill-opacity:1;fill-rule:nonzero;stroke:none"
           d="m 0,0 0,84.592 15.145,0 0,-46.406 3.136,0 16.226,19.253 19.256,0 L 32.236,32.452 53.763,0 35.697,0 18.281,26.611 l -3.136,0 L 15.145,0 0,0 z" /></g><g
         transform="translate(218.978,37.5244)"
         id="g3637"><path
           inkscape:connector-curvature="0"
           id="path3639"
           style="fill:#42210b;fill-opacity:1;fill-rule:nonzero;stroke:none"
           d="m 0,0 c 0,-19.741 -2.31,-24.677 -16.064,-24.677 -4.517,0 -9.132,0.312 -9.132,0.312 l 0,11.864 c 0,0 4.72,0.109 5.666,0.109 3.046,0 4.935,1.156 4.935,7.246 l 0,58.068 L 0,52.922 0,0 z" /></g></g><g
       id="g3699"
       transform="translate(-39.708124,783.48741)"><g
         inkscape:export-ydpi="596.14001"
         inkscape:export-xdpi="596.14001"
         inkscape:export-filename="/Users/auxesis/code/flapjack.wiki/artwork/g3665.png"
         id="g3641"
         transform="translate(-16.045205,-822.7202)"><path
           id="path3643"
           style="fill:#f9bf30;fill-opacity:1;fill-rule:nonzero;stroke:none"
           d="m 228.619,243.629 -31.651,0 0,31.652 31.651,0 0,-31.652 z"
           inkscape:connector-curvature="0" /><path
           id="path3645"
           style="fill:#f9bf30;fill-opacity:1;fill-rule:nonzero;stroke:none"
           d="m 184.203,256.902 -19.399,0 0,19.4 19.399,0 0,-19.4 z"
           inkscape:connector-curvature="0" /><path
           id="path3647"
           style="fill:#f9bf30;fill-opacity:1;fill-rule:nonzero;stroke:none"
           d="m 203.092,287.024 -14.295,0 0,14.295 14.295,0 0,-14.295 z"
           inkscape:connector-curvature="0" /><g
           transform="translate(285.3716,224.5508)"
           id="g3649"><path
             inkscape:connector-curvature="0"
             id="path3651"
             style="fill:#7f3c05;fill-opacity:1;fill-rule:nonzero;stroke:none"
             d="m 0,0 c 0,-4.418 -3.582,-8 -8,-8 l -158,0 c -4.418,0 -8,3.582 -8,8 0,4.419 3.582,8 8,8 L -8,8 C -3.582,8 0,4.419 0,0" /></g><g
           transform="translate(285.3716,198.5508)"
           id="g3653"><path
             inkscape:connector-curvature="0"
             id="path3655"
             style="fill:#7f3c05;fill-opacity:1;fill-rule:nonzero;stroke:none"
             d="m 0,0 c 0,-4.418 -3.582,-8 -8,-8 l -158,0 c -4.418,0 -8,3.582 -8,8 0,4.419 3.582,8 8,8 L -8,8 C -3.582,8 0,4.419 0,0" /></g><g
           transform="translate(285.3716,171.5508)"
           id="g3657"><path
             inkscape:connector-curvature="0"
             id="path3659"
             style="fill:#7f3c05;fill-opacity:1;fill-rule:nonzero;stroke:none"
             d="m 0,0 c 0,-4.418 -3.582,-8 -8,-8 l -158,0 c -4.418,0 -8,3.582 -8,8 0,4.419 3.582,8 8,8 L -8,8 C -3.582,8 0,4.419 0,0" /></g><g
           transform="translate(285.3716,145.5508)"
           id="g3661"><path
             inkscape:connector-curvature="0"
             id="path3663"
             style="fill:#7f3c05;fill-opacity:1;fill-rule:nonzero;stroke:none"
             d="m 0,0 c 0,-4.418 -3.582,-8 -8,-8 l -158,0 c -4.418,0 -8,3.582 -8,8 0,4.419 3.582,8 8,8 L -8,8 C -3.582,8 0,4.419 0,0" /></g></g><g
         inkscape:export-ydpi="596.14001"
         inkscape:export-xdpi="596.14001"
         id="g3665"
         transform="matrix(1.0936423,0,0,1.0936423,297.96947,-705.86553)"><g
           transform="translate(4.7964,79.2568)"
           id="g3667"><path
             inkscape:connector-curvature="0"
             id="path3669"
             style="fill:#42210b;fill-opacity:1;fill-rule:nonzero;stroke:none"
             d="m 0,0 0,9.736 9.087,1.838 0,4.869 c 0,15.145 7.101,22.716 21.309,22.716 l 32.238,-0.216 0,-61.983 c 0,-3.895 0.358,-6.564 1.081,-8.005 0.72,-1.444 2.017,-2.525 3.893,-3.246 4.328,-1.514 6.744,-2.272 7.248,-2.272 l 0,-9.302 -12.548,0 c -5.193,0 -8.961,1.531 -11.305,4.597 -2.344,3.065 -3.516,8.347 -3.516,15.848 l 0,53.005 -14.17,0.107 c -2.091,0 -3.785,-0.324 -5.084,-0.972 -2.669,-1.228 -4.002,-4.652 -4.002,-10.277 l 0,-4.869 12.981,0 0,-11.574 -13.09,0 0,-45.865 -15.143,0 L 8.979,0 0,0 z" /></g><g
           transform="translate(99.5552,50.1592)"
           id="g3671"><path
             inkscape:connector-curvature="0"
             id="path3673"
             style="fill:#42210b;fill-opacity:1;fill-rule:nonzero;stroke:none"
             d="m 0,0 c 0,-2.164 0.469,-3.589 1.406,-4.273 0.938,-0.687 2.308,-1.028 4.112,-1.028 1.8,0 3.802,0.378 6.003,1.136 2.2,0.757 3.911,1.496 5.139,2.218 l 1.946,1.189 0,10.493 L 4.652,8.653 C 1.551,8.364 0,6.417 0,2.813 L 0,0 z m -13.196,37.86 c 6.561,2.597 15.323,3.895 26.286,3.895 6.634,0 11.737,-1.391 15.306,-4.165 3.57,-2.777 5.355,-7.555 5.355,-14.332 l 0,-40.026 -12.008,0 -3.137,6.275 c -0.288,-0.505 -1.208,-1.281 -2.757,-2.326 -1.552,-1.046 -3.699,-2.074 -6.437,-3.083 -2.742,-1.009 -5.373,-1.514 -7.897,-1.514 -5.337,0 -9.448,1.53 -12.331,4.597 -2.885,3.064 -4.328,6.616 -4.328,10.655 l 0,5.408 c 0,4.615 1.371,8.402 4.111,11.36 2.74,2.956 6.959,4.416 12.656,4.379 5.695,-0.037 9.951,-0.053 12.765,-0.053 2.813,0 4.218,0.035 4.218,0.108 l 0,2.65 0,1.029 c 0,2.883 -0.614,4.775 -1.838,5.679 -1.227,0.9 -3.678,1.351 -7.356,1.351 -3.679,0 -11.215,-0.397 -22.608,-1.189 l 0,9.302 z" /></g><g
           transform="translate(170.8423,44.4248)"
           id="g3675"><path
             inkscape:connector-curvature="0"
             id="path3677"
             style="fill:#42210b;fill-opacity:1;fill-rule:nonzero;stroke:none"
             d="M 0,0 C 1.73,0 3.1,0.396 4.11,1.19 6.345,3.065 7.463,8.438 7.463,17.308 7.463,23.51 6.85,27.855 5.625,30.344 4.398,32.831 2.523,34.075 0,34.075 c -5.338,0 -9.844,-1.154 -13.521,-3.461 l 0,-28.449 C -9.773,0.721 -5.266,0 0,0 m -5.572,45.109 c 3.209,1.297 6.455,1.947 9.736,1.947 3.281,0 6.148,-0.687 8.6,-2.055 2.451,-1.371 4.398,-3.391 5.841,-6.059 2.667,-5.047 4.002,-12.043 4.002,-20.984 0,-11.684 -1.73,-19.761 -5.191,-24.231 -3.029,-3.75 -7.537,-5.625 -13.521,-5.625 -2.596,0 -5.518,0.342 -8.763,1.028 -3.245,0.683 -6.13,1.567 -8.653,2.65 l 0,-32.02 -15.038,0 0,86.646 12.441,0 2.597,-5.732 c 2.09,1.659 4.74,3.138 7.949,4.435" /></g><g
           transform="translate(204.2388,101.7295)"
           id="g3679"><path
             inkscape:connector-curvature="0"
             id="path3681"
             style="fill:#42210b;fill-opacity:1;fill-rule:nonzero;stroke:none"
             d="m 0,0 0,8.472 c 0,1.668 0.77,2.503 2.31,2.503 l 10.108,0 c 0.705,0 1.251,-0.242 1.637,-0.723 0.385,-0.481 0.577,-1.075 0.577,-1.78 l 0,-8.472 c 0,-1.478 -0.739,-2.215 -2.214,-2.215 l -10.108,0 c -0.706,0 -1.268,0.194 -1.685,0.578 C 0.208,-1.251 0,-0.707 0,0" /></g><g
           transform="translate(242.019,50.1592)"
           id="g3683"><path
             inkscape:connector-curvature="0"
             id="path3685"
             style="fill:#42210b;fill-opacity:1;fill-rule:nonzero;stroke:none"
             d="m 0,0 c 0,-2.164 0.468,-3.589 1.406,-4.273 0.937,-0.687 2.307,-1.028 4.111,-1.028 1.802,0 3.802,0.378 6.004,1.136 2.199,0.757 3.911,1.496 5.138,2.218 l 1.946,1.189 0,10.493 L 4.651,8.653 C 1.55,8.364 0,6.417 0,2.813 L 0,0 z m -13.198,37.86 c 6.562,2.597 15.324,3.895 26.287,3.895 6.634,0 11.736,-1.391 15.307,-4.165 3.569,-2.777 5.354,-7.555 5.354,-14.332 l 0,-40.026 -12.007,0 -3.138,6.275 c -0.289,-0.505 -1.209,-1.281 -2.757,-2.326 -1.552,-1.046 -3.697,-2.074 -6.437,-3.083 -2.742,-1.009 -5.373,-1.514 -7.896,-1.514 -5.338,0 -9.45,1.53 -12.332,4.597 -2.885,3.064 -4.328,6.616 -4.328,10.655 l 0,5.408 c 0,4.615 1.37,8.402 4.112,11.36 2.739,2.956 6.958,4.416 12.655,4.379 5.697,-0.037 9.953,-0.053 12.765,-0.053 2.813,0 4.218,0.035 4.218,0.108 l 0,2.65 0,1.029 c 0,2.883 -0.613,4.775 -1.838,5.679 -1.228,0.9 -3.678,1.351 -7.356,1.351 -3.678,0 -11.215,-0.397 -22.609,-1.189 l 0,9.302 z" /></g><g
           transform="translate(283.8823,62.166)"
           id="g3687"><path
             inkscape:connector-curvature="0"
             id="path3689"
             style="fill:#42210b;fill-opacity:1;fill-rule:nonzero;stroke:none"
             d="m 0,0 c 0,5.769 0.449,10.618 1.353,14.549 0.9,3.93 2.234,6.923 4.002,8.978 1.766,2.056 3.732,3.516 5.895,4.382 2.164,0.865 4.722,1.297 7.681,1.297 10.6,0 19.398,-1.118 26.394,-3.352 l 0,-9.412 c -6.852,0.433 -12.315,0.649 -16.388,0.649 -4.076,0 -6.528,-0.072 -7.357,-0.216 -0.83,-0.146 -1.749,-0.506 -2.758,-1.082 -1.01,-0.578 -1.73,-1.479 -2.163,-2.704 -1.012,-2.958 -1.515,-7.158 -1.515,-12.602 0,-5.447 0.342,-9.357 1.028,-11.737 0.684,-2.38 1.694,-3.948 3.029,-4.706 1.334,-0.757 3.444,-1.136 6.327,-1.136 5.842,0 11.719,0.252 17.634,0.758 l 2.92,0.217 0,-9.52 c -3.318,-1.731 -6.563,-2.741 -9.735,-3.029 -4.69,-0.433 -8.763,-0.649 -12.224,-0.649 l -0.649,0 -4.543,0 c -5.699,0 -10.169,1.91 -13.414,5.733 C 1.839,-19.327 0,-11.467 0,0" /></g><g
           transform="translate(338.1841,33.3916)"
           id="g3691"><path
             inkscape:connector-curvature="0"
             id="path3693"
             style="fill:#42210b;fill-opacity:1;fill-rule:nonzero;stroke:none"
             d="m 0,0 0,84.592 15.145,0 0,-46.406 3.136,0 16.226,19.253 19.256,0 L 32.236,32.452 53.763,0 35.697,0 18.281,26.611 l -3.136,0 L 15.145,0 0,0 z" /></g><g
           transform="translate(218.978,37.5244)"
           id="g3695"><path
             inkscape:connector-curvature="0"
             id="path3697"
             style="fill:#42210b;fill-opacity:1;fill-rule:nonzero;stroke:none"
             d="m 0,0 c 0,-19.741 -2.31,-24.677 -16.064,-24.677 -4.517,0 -9.132,0.312 -9.132,0.312 l 0,11.864 c 0,0 4.72,0.109 5.666,0.109 3.046,0 4.935,1.156 4.935,7.246 l 0,58.068 L 0,52.922 0,0 z" /></g></g></g></g></svg>